<svg xmlns="http://www.w3.org/2000/svg" viewBox="0 0 121.72 104.84"><defs><style>.cls-1{fill:#888b8d;}</style></defs><g id="Layer_2" data-name="Layer 2"><g id="Capa_1" data-name="Capa 1"><path class="cls-1" d="M54.09,0a6.82,6.82,0,0,0-6.76,6.76V16.91c11.26,0,15.79,0,27.05,0V6.76A6.82,6.82,0,0,0,67.62,0ZM40.57,10.51A54,54,0,0,0,10.69,40.57H22.81c4.41.09,4.41,6.66,0,6.76H10.13a10.15,10.15,0,0,0,0,20.29H111.58a10.15,10.15,0,0,0,0-20.29H98.9c-4.41-.1-4.41-6.67,0-6.76H111a54,54,0,0,0-29.86-30v9.76a3.38,3.38,0,0,1-3.38,3.38q-16.9,0-33.8,0a3.38,3.38,0,0,1-3.38-3.38V10.51ZM50.72,30.43H71a3.39,3.39,0,0,1,.15,6.77H50.72a3.39,3.39,0,0,1,0-6.77Zm0,10.14H71a3.38,3.38,0,0,1,0,6.76H50.72a3.38,3.38,0,0,1,0-6.76ZM17.52,71v1h86.66V71Zm.73,3.36a40.48,40.48,0,0,0,39.2,30.45h6.77a40.52,40.52,0,0,0,39.23-30.45Z"/></g></g></svg>