<svg xmlns="http://www.w3.org/2000/svg" viewBox="0 0 101.87 104.84"><defs><style>.cls-1{fill:#888b8d;}</style></defs><g id="Layer_2" data-name="Layer 2"><g id="Capa_1" data-name="Capa 1"><path class="cls-1" d="M34.36,84.53h0l-.32-.1c-3.55-1-14.34-1.46-18.37-1.12-1.65.14-2.71.49-3.16,1-.62,1.12-.32,8.28-.15,12.13.1,2.5.2,4.67.14,5.85a3.37,3.37,0,0,0,.49,2.3h.06c2.69-.44,5.75-2.25,9-4.16s6.51-3.83,9.8-4.65a16,16,0,0,1,1.93-.33c1.08-.12,1.46-.2,1.75-.59h0c.61-.86,1.31-6.71,1.26-8.86C36.77,85.67,36.76,85.31,34.36,84.53Zm-14.72,9A1.94,1.94,0,1,1,20.74,91,1.93,1.93,0,0,1,19.64,93.49Z"/><path class="cls-1" d="M16.66,81h3L21,81H21l1.34,0h.07l1.39,0h.06l1.42.07h.06l1.42.09h.06l.66,0h0l.69,0h.05l.63.06H29l.67.06h0l.6.06h.08l.61.07h0l.56.07h.09l1.08.16.1,0c.29,0,.57.09.83.15l0-.71c.19-4.67.46-11.07-.72-15h0c-1.47-4.91-9.89-17.69-16.18-20.9a4.61,4.61,0,0,0-3.59-.59h0a2.76,2.76,0,0,0-1.19.71l-.05.06a1.61,1.61,0,0,0-.35.69c-.4,1.63.73,5.3,8.42,13.53l.49.53A1.11,1.11,0,0,1,20.43,62a1.08,1.08,0,0,1-.75.3,1.11,1.11,0,0,1-.82-.36l-.47-.51c-4.72-5-10-11.38-9-15.59A3.86,3.86,0,0,1,10,44.58c1-5.23,1-13.59-.72-18.23A8.24,8.24,0,0,0,5.57,22a2.21,2.21,0,0,0-1.86,0C2.34,22.55.63,27.6.13,37.23c-.42,8.08.21,16.07,1.5,19a26.15,26.15,0,0,0,6.64,8.9c3.43,3.33,7,6.77,8.28,15.92Z"/><path class="cls-1" d="M91.05,85.58c-.43-.5-1.44-.8-3-.89h0l-.37,0H84.4l-2,.09h-.12l-.45,0h-.16l-.44,0h-.16l-.46,0h-.15l-.47,0h-.11l-2.2.19h-.1l-.43,0-.18,0-.39,0-.22,0-.37,0-.23,0-.35,0-.24,0-.33,0-.24,0-.31,0-.26,0-.44.07-.33.05-.22,0-.28,0-.21,0-.26,0-.2,0-.24,0-.19,0-.22.06-.17,0-.22.06-.14,0-.22.06-.11,0-.28.09c-2.24.8-2.24,1.13-2.24,1.47,0,2,.82,7.56,1.42,8.37h0c.28.34.63.4,1.65.49a15.5,15.5,0,0,1,1.86.26c3.16.7,6.37,2.47,9.47,4.18s6.11,3.37,8.68,3.72h0a3.37,3.37,0,0,0,.38-2.15c-.09-1.12-.06-3.19,0-5.58C91.56,93.45,91.66,86.66,91.05,85.58Zm-4.16,7.77A1.85,1.85,0,1,1,85.78,91,1.84,1.84,0,0,1,86.89,93.35Z"/><path class="cls-1" d="M101.58,40.3c-.73-9.15-2.48-13.89-3.8-14.43a2.11,2.11,0,0,0-1.73.09,7.83,7.83,0,0,0-3.39,4.22c-1.51,4.47-1.27,12.41-.2,17.36a3.87,3.87,0,0,1,.58,1.2c1.11,4-3.76,10.2-8.13,15.14l-.44.5a1.11,1.11,0,1,1-1.67-1.45l.45-.52c7.1-8,8.08-11.54,7.65-13.08a1.45,1.45,0,0,0-.36-.64l0,0A2.75,2.75,0,0,0,89.38,48a2.84,2.84,0,0,0-.84-.12,5.43,5.43,0,0,0-2.54.78C80.1,51.91,72.44,64.29,71.17,69h0c-1,3.71-.6,9.8-.29,14.25,0,.21,0,.41.05.61l.14,0,.19,0,.29-.06.18,0,.47-.09.2,0,.32,0,.22,0,.34,0,.2,0,.46-.07H74l1.26-.17h0l.64-.08h0c3.61-.4,7.72-.63,10.42-.64h.7c1-8.74,4.29-12.11,7.47-15.38a24.89,24.89,0,0,0,6.08-8.64C101.81,55.6,102.19,48,101.58,40.3Z"/><polygon class="cls-1" points="73.46 51.44 73.46 27.63 80.32 27.63 80.32 20.05 52.97 0 25.62 20.05 25.62 27.63 32.17 27.63 32.17 51.44 46.98 51.44 46.98 34.55 52.97 34.55 59.08 34.55 59.08 51.44 73.46 51.44"/></g></g></svg>