<svg xmlns="http://www.w3.org/2000/svg" viewBox="0 0 95.26 104.88"><defs><style>.cls-1{fill:#888b8d;}</style></defs><g id="Layer_2" data-name="Layer 2"><g id="Capa_1" data-name="Capa 1"><path class="cls-1" d="M74.26,31a7.45,7.45,0,0,1,2.2,5.34l0,18.84a7.57,7.57,0,0,1-7.57,7.53H66.37l-.15,15.78a2.91,2.91,0,0,0,2.88,2.93l22.57.22a.76.76,0,0,0,.56-.26.73.73,0,0,0-.09-1,2,2,0,0,1-.21-.2,1.71,1.71,0,0,1,.2-2.41l2-1.66a2.89,2.89,0,0,0,0-4.41l-4-3.53a2.13,2.13,0,0,1-.3-.3,2.91,2.91,0,0,1,.33-4.1l4.11-3.49c.11-.1.21-.2.31-.31a2.91,2.91,0,0,0-.28-4.1l-4-3.51A2.13,2.13,0,0,1,90,52a2.9,2.9,0,0,1,.33-4.1L94,44.76a2.81,2.81,0,0,0,.56-.63,2.91,2.91,0,0,0-.86-4L88,36.4a3,3,0,0,1-.63-.55,2.91,2.91,0,0,1,.32-4.1L91,28.89a2.69,2.69,0,0,0,.55-.62,2.89,2.89,0,0,0-.85-4L85,20.54a2.89,2.89,0,0,1-.28-4.67L88.16,13a3.41,3.41,0,0,0,.46-.47,2.91,2.91,0,0,0-.56-4.08L77.65.59a2.9,2.9,0,0,0-2.47-.5L69.11,1.64a2.92,2.92,0,0,0-2.19,2.79l-.23,24.35h2.24A7.51,7.51,0,0,1,74.26,31Z"/><path class="cls-1" d="M34.85,68.59H32.21l0-8.76a.2.2,0,0,1,.2-.2l36.41.1a4.56,4.56,0,0,0,4.56-4.54l0-18.84a4.56,4.56,0,0,0-4.53-4.56l-9.07,0,0-6.83a3.7,3.7,0,0,0-3.69-3.7L3.75,21.08a3.7,3.7,0,0,0-3.7,3.69L0,42a3.69,3.69,0,0,0,3.68,3.7l52.45.15a3.71,3.71,0,0,0,3.7-3.69l0-6,9.06,0a.2.2,0,0,1,.2.2l0,18.84a.2.2,0,0,1-.2.2l-36.41-.1a4.55,4.55,0,0,0-4.56,4.53l0,8.77h-3.6a3.5,3.5,0,0,0-3.5,3.49l-.07,25.48A3.5,3.5,0,0,0,24.17,101l10.59,0a3.5,3.5,0,0,0,3.5-3.49l.07-25.49A3.49,3.49,0,0,0,34.85,68.59Z"/><path class="cls-1" d="M93.19,89.72a2.91,2.91,0,0,0-2.81-2.28l-21.33-.2a2.91,2.91,0,0,0-2.94,2.88L66,98.84a5.81,5.81,0,0,0,5.76,5.87l17.45.17A5.82,5.82,0,0,0,95,97.81ZM87.11,99l-13.37-.12a2.91,2.91,0,0,1,.05-5.82l13.38.13A2.91,2.91,0,1,1,87.11,99Z"/></g></g></svg>