<svg xmlns="http://www.w3.org/2000/svg" viewBox="0 0 125.64 104.84"><defs><style>.cls-1{fill:#888b8d;}</style></defs><g id="Layer_2" data-name="Layer 2"><g id="Capa_1" data-name="Capa 1"><path class="cls-1" d="M97.55,68.66a30.68,30.68,0,0,0-6.43-2,35.28,35.28,0,0,1-4.39-1.34,5.82,5.82,0,0,1-2.26-1.45,2.91,2.91,0,0,1-.69-2,3.06,3.06,0,0,1,1.39-2.73,6.9,6.9,0,0,1,3.86-1,6.76,6.76,0,0,1,3.75,1,3.66,3.66,0,0,1,1.77,2.41,1.29,1.29,0,0,0,1.29.81h4.23a.92.92,0,0,0,1-.86v-.11A7.11,7.11,0,0,0,99.86,58a10,10,0,0,0-3.16-3.06,12.31,12.31,0,0,0-5-1.71V50.06a1,1,0,0,0-1-1.07h-2.9a1.1,1.1,0,0,0-.75.27,1,1,0,0,0-.32.8v3.11a11.78,11.78,0,0,0-6.92,2.95A7.8,7.8,0,0,0,77.35,62a7.21,7.21,0,0,0,2.46,5.89,18.87,18.87,0,0,0,7.72,3.32q3.16.87,4.82,1.45a6.66,6.66,0,0,1,2.47,1.4,2.7,2.7,0,0,1,.8,2A3.26,3.26,0,0,1,94,79a8.45,8.45,0,0,1-4.67,1.07,7.94,7.94,0,0,1-4.34-1,4.79,4.79,0,0,1-2.09-2.57,2.11,2.11,0,0,0-.54-.65,1.55,1.55,0,0,0-.8,0h-4a1,1,0,0,0-.7.27.91.91,0,0,0-.26.65,7.46,7.46,0,0,0,1.28,3.85,9.35,9.35,0,0,0,3.49,3.06,14.28,14.28,0,0,0,5.36,1.55v3.11a1,1,0,0,0,.32.81,1.07,1.07,0,0,0,.75.27h2.78a1,1,0,0,0,1.08-1V85.22a13.18,13.18,0,0,0,7.55-2.89A7.91,7.91,0,0,0,102,76a7.82,7.82,0,0,0-1.12-4.35A8.31,8.31,0,0,0,97.55,68.66Z"/><path class="cls-1" d="M109.33,39.17a35.63,35.63,0,0,0-20-5.72H75.68V19.67A2.68,2.68,0,0,0,73,17H69.68V2.68A2.68,2.68,0,0,0,67,0H2.68A2.68,2.68,0,0,0,0,2.68V19.14a2.68,2.68,0,0,0,2.68,2.68H6.22V36.13A2.68,2.68,0,0,0,8.9,38.81h2.68V50h-8A2.68,2.68,0,0,0,.86,52.64v49.2a2.68,2.68,0,0,0,2.68,2.68H67.86a2.68,2.68,0,0,0,2.68-2.68V99.11a35.7,35.7,0,0,0,38.79-59.94ZM70.54,22.35v11.1h-59V22.35Zm0,16.46A35.8,35.8,0,0,0,59.28,49.9H16.94V38.81ZM5.36,16.46V5.36h59v11.1Zm.86,38.8H56.44a35.44,35.44,0,0,0-2.68,11.1H6.22Zm0,16.51H53.6a35.43,35.43,0,0,0,2.63,11.1h-50Zm0,27.55V88.23h53A35.82,35.82,0,0,0,65,95.14l.22,4.18Zm109.2-14.63A30.22,30.22,0,0,1,63.36,54a3.29,3.29,0,0,0,.26-.49,30.24,30.24,0,0,1,51.8,31.2Z"/></g></g></svg>